<svg width="760" height="520" viewBox="0 0 760 520" fill="none" xmlns="http://www.w3.org/2000/svg">
  <defs>
    <linearGradient id="g1" x1="0" y1="0" x2="760" y2="520" gradientUnits="userSpaceOnUse">
      <stop stop-color="#EBF4FF"/>
      <stop offset="1" stop-color="#E6FBFF"/>
    </linearGradient>
  </defs>
  <rect width="760" height="520" rx="28" fill="url(#g1)"/>
  <rect x="64" y="56" width="632" height="408" rx="24" fill="#FFFFFF" stroke="#CFE2FF" stroke-width="3"/>
  <rect x="98" y="98" width="220" height="24" rx="12" fill="#1E40AF"/>
  <rect x="98" y="136" width="280" height="14" rx="7" fill="#92B8FF"/>
  <rect x="98" y="208" width="260" height="220" rx="16" fill="#F3F8FF" stroke="#D8E9FF" stroke-width="2"/>
  <rect x="378" y="208" width="282" height="98" rx="16" fill="#F3F8FF" stroke="#D8E9FF" stroke-width="2"/>
  <rect x="378" y="330" width="282" height="98" rx="16" fill="#F3F8FF" stroke="#D8E9FF" stroke-width="2"/>
  <rect x="116" y="238" width="224" height="18" rx="9" fill="#7BA9FF"/>
  <rect x="116" y="268" width="132" height="14" rx="7" fill="#B3CEFF"/>
  <rect x="399" y="235" width="204" height="16" rx="8" fill="#7EE1F4"/>
  <rect x="399" y="261" width="152" height="12" rx="6" fill="#BCECF6"/>
  <rect x="399" y="357" width="180" height="16" rx="8" fill="#7EE1F4"/>
  <rect x="399" y="383" width="222" height="12" rx="6" fill="#BCECF6"/>
  <text x="380" y="490" fill="#4B5774" font-family="Arial, sans-serif" font-size="21" text-anchor="middle">Replace with your final app preview</text>
</svg>
