<svg width="900" height="620" viewBox="0 0 900 620" fill="none" xmlns="http://www.w3.org/2000/svg">
  <defs>
    <linearGradient id="bg" x1="0" y1="0" x2="900" y2="620" gradientUnits="userSpaceOnUse">
      <stop stop-color="#EEF5FF"/>
      <stop offset="1" stop-color="#DDF4FF"/>
    </linearGradient>
    <linearGradient id="card" x1="0" y1="0" x2="760" y2="470" gradientUnits="userSpaceOnUse">
      <stop stop-color="#FFFFFF"/>
      <stop offset="1" stop-color="#F2F7FF"/>
    </linearGradient>
  </defs>
  <rect width="900" height="620" rx="26" fill="url(#bg)"/>
  <rect x="70" y="70" width="760" height="470" rx="22" fill="url(#card)" stroke="#BDD6FF" stroke-width="3"/>
  <rect x="110" y="120" width="220" height="36" rx="10" fill="#1E40AF"/>
  <rect x="110" y="178" width="320" height="14" rx="7" fill="#88B4FF"/>
  <rect x="110" y="205" width="260" height="14" rx="7" fill="#A9C7FF"/>
  <rect x="110" y="248" width="340" height="210" rx="16" fill="#F6FAFF" stroke="#D3E5FF" stroke-width="2"/>
  <rect x="476" y="248" width="314" height="97" rx="16" fill="#F6FAFF" stroke="#D3E5FF" stroke-width="2"/>
  <rect x="476" y="360" width="314" height="98" rx="16" fill="#F6FAFF" stroke="#D3E5FF" stroke-width="2"/>
  <path d="M146 424L193 386L243 404L286 340L333 324L378 272L424 288" stroke="#2563EB" stroke-width="8" stroke-linecap="round" stroke-linejoin="round"/>
  <circle cx="424" cy="288" r="9" fill="#06B6D4"/>
  <rect x="500" y="273" width="128" height="18" rx="9" fill="#78E3F5"/>
  <rect x="500" y="301" width="220" height="14" rx="7" fill="#BCEAF6"/>
  <rect x="500" y="387" width="180" height="18" rx="9" fill="#78E3F5"/>
  <rect x="500" y="415" width="250" height="14" rx="7" fill="#BCEAF6"/>
  <text x="450" y="575" fill="#4A5570" font-family="Arial, sans-serif" font-size="22" text-anchor="middle">Replace with your real dashboard screenshot</text>
</svg>
