<svg xmlns="http://www.w3.org/2000/svg" viewBox="0 0 1440 810" width="1440" height="810"><defs><linearGradient id="sky" x1="0" y1="0" x2="0" y2="1"><stop offset="0" stop-color="#7FD3E8"/><stop offset="1" stop-color="#CDEFF5"/></linearGradient><linearGradient id="water" x1="0" y1="0" x2="0" y2="1"><stop offset="0" stop-color="#23A9BE"/><stop offset="1" stop-color="#0A2C57"/></linearGradient></defs><rect width="1440" height="810" fill="#0A1A2C"/><path d="M0 0 H1440 V810 H0 Z" fill="url(#water)" opacity=".18"/><rect x="0" y="0" width="1440" height="96" rx="0" fill="#081524" stroke="#204058" stroke-width="2" opacity="1"/><text x="56" y="62" font-family="'Helvetica Neue', Helvetica, Arial, sans-serif" font-size="44" font-weight="700" fill="#EAF4FB" text-anchor="start" letter-spacing="8" opacity="1">GARAGE</text><g transform="translate(952 48)"><circle r="20" fill="#FFC93C"/><circle r="14" fill="#E0A81F"/><path d="M-6 -8 h12 M0 -8 v17 M-6 8 h12" stroke="#FFF0B8" stroke-width="3" fill="none" stroke-linecap="round"/></g><text x="982" y="60" font-family="'Helvetica Neue', Helvetica, Arial, sans-serif" font-size="32" font-weight="700" fill="#FFC93C" text-anchor="start" letter-spacing="2" opacity="1">184 500</text><circle cx="1252" cy="48" r="18" fill="#D1E6FF"/><circle cx="1252" cy="48" r="11" fill="#FFFFFF" opacity=".7"/><text x="1282" y="60" font-family="'Helvetica Neue', Helvetica, Arial, sans-serif" font-size="32" font-weight="700" fill="#D1E6FF" text-anchor="start" letter-spacing="2" opacity="1">126</text><rect x="56" y="124" width="172" height="58" rx="12" fill="#28374A" stroke="#204058" stroke-width="2" opacity="1"/><text x="142" y="162" font-family="'Helvetica Neue', Helvetica, Arial, sans-serif" font-size="24" font-weight="700" fill="#7B94A9" text-anchor="middle" letter-spacing="4" opacity="1">VEHICLE</text><rect x="246" y="124" width="172" height="58" rx="12" fill="#28374A" stroke="#204058" stroke-width="2" opacity="1"/><text x="332" y="162" font-family="'Helvetica Neue', Helvetica, Arial, sans-serif" font-size="24" font-weight="700" fill="#7B94A9" text-anchor="middle" letter-spacing="4" opacity="1">WORLD</text><rect x="436" y="124" width="172" height="58" rx="12" fill="#2F6E92" stroke="#204058" stroke-width="2" opacity="1"/><text x="522" y="162" font-family="'Helvetica Neue', Helvetica, Arial, sans-serif" font-size="24" font-weight="700" fill="#EAF4FB" text-anchor="middle" letter-spacing="4" opacity="1">TUNE</text><rect x="626" y="124" width="172" height="58" rx="12" fill="#28374A" stroke="#204058" stroke-width="2" opacity="1"/><text x="712" y="162" font-family="'Helvetica Neue', Helvetica, Arial, sans-serif" font-size="24" font-weight="700" fill="#7B94A9" text-anchor="middle" letter-spacing="4" opacity="1">STYLE</text><rect x="56" y="214" width="620" height="330" rx="18" fill="#102436" stroke="#204058" stroke-width="2" opacity="1"/><path d="M56 452 h620 v74 a18 18 0 0 1 -18 18 h-584 a18 18 0 0 1 -18 -18 Z" fill="#0A2C57"/><path d="M56 452 h620 v10 h-620 Z" fill="#23A9BE" opacity=".7"/><g transform="translate(366 452) rotate(0) scale(1.5)"><path d="M-100 -10 L96 -20 C106 -6 96 16 76 18 L-70 18 C-92 18 -100 4 -100 -10 Z" fill="#0D2740"/><path d="M-100 -10 L96 -20 L97 -12 L-100 -2 Z" fill="#1B4A70"/><path d="M-88 -5 L88 -15 L88 -9 L-88 1 Z" fill="#FFC93C" opacity=".85"/><path d="M-52 -14 L-49 -36 q12 -7 24 0 L-22 -14 Z" fill="#A6413A"/><circle cx="-37" cy="-46" r="11" fill="#E8C48A"/><path d="M-49 -50 q12 -11 24 -2 l10 2 -10 4 q-12 3 -24 -4 Z" fill="#FFC93C"/><path d="M-30 -12 L-14 -44 L28 -44 L42 -12 Z" fill="#153B5C"/><path d="M-6 -18 L4 -38 L23 -38 L31 -18 Z" fill="#6FE0DC" opacity=".75"/></g><text x="366" y="290" font-family="'Helvetica Neue', Helvetica, Arial, sans-serif" font-size="52" font-weight="700" fill="#EAF4FB" text-anchor="middle" letter-spacing="6" opacity="1">SPEEDBOAT</text><text x="366" y="328" font-family="'Helvetica Neue', Helvetica, Arial, sans-serif" font-size="22" font-weight="700" fill="#7B94A9" text-anchor="middle" letter-spacing="5" opacity="1">LIGHT MOTOR  ·  OWNED</text><rect x="712" y="214" width="672" height="54" rx="12" fill="#16324B" stroke="#204058" stroke-width="2" opacity="1"/><text x="736" y="250" font-family="'Helvetica Neue', Helvetica, Arial, sans-serif" font-size="28" font-weight="700" fill="#EAF4FB" text-anchor="start" letter-spacing="4" opacity="1">GO</text><text x="898" y="249" font-family="'Helvetica Neue', Helvetica, Arial, sans-serif" font-size="16" font-weight="700" fill="#7B94A9" text-anchor="start" letter-spacing="2" opacity="1">ENGINE</text><rect x="1040" y="234" width="11" height="15" rx="3" fill="#FFC93C"/><rect x="1057" y="234" width="11" height="15" rx="3" fill="#FFC93C"/><rect x="1074" y="234" width="11" height="15" rx="3" fill="#FFC93C"/><rect x="1091" y="234" width="11" height="15" rx="3" fill="#FFC93C"/><rect x="1108" y="234" width="11" height="15" rx="3" fill="#FFC93C"/><rect x="1125" y="234" width="11" height="15" rx="3" fill="#FFC93C"/><rect x="1142" y="234" width="11" height="15" rx="3" fill="#FFC93C"/><rect x="1159" y="234" width="11" height="15" rx="3" fill="#28374A"/><rect x="1176" y="234" width="11" height="15" rx="3" fill="#28374A"/><rect x="1193" y="234" width="11" height="15" rx="3" fill="#28374A"/><rect x="1210" y="234" width="11" height="15" rx="3" fill="#28374A"/><rect x="1227" y="234" width="11" height="15" rx="3" fill="#28374A"/><rect x="1244" y="234" width="11" height="15" rx="3" fill="#28374A"/><rect x="1261" y="234" width="11" height="15" rx="3" fill="#28374A"/><rect x="1278" y="234" width="11" height="15" rx="3" fill="#28374A"/><text x="1360" y="250" font-family="'Helvetica Neue', Helvetica, Arial, sans-serif" font-size="22" font-weight="700" fill="#7B94A9" text-anchor="end" letter-spacing="2" opacity="1">7/15</text><rect x="712" y="280" width="672" height="54" rx="12" fill="#16324B" stroke="#204058" stroke-width="2" opacity="1"/><text x="736" y="316" font-family="'Helvetica Neue', Helvetica, Arial, sans-serif" font-size="28" font-weight="700" fill="#EAF4FB" text-anchor="start" letter-spacing="4" opacity="1">HULL</text><text x="898" y="315" font-family="'Helvetica Neue', Helvetica, Arial, sans-serif" font-size="16" font-weight="700" fill="#7B94A9" text-anchor="start" letter-spacing="2" opacity="1">HULL</text><rect x="1040" y="300" width="11" height="15" rx="3" fill="#FFC93C"/><rect x="1057" y="300" width="11" height="15" rx="3" fill="#FFC93C"/><rect x="1074" y="300" width="11" height="15" rx="3" fill="#FFC93C"/><rect x="1091" y="300" width="11" height="15" rx="3" fill="#FFC93C"/><rect x="1108" y="300" width="11" height="15" rx="3" fill="#28374A"/><rect x="1125" y="300" width="11" height="15" rx="3" fill="#28374A"/><rect x="1142" y="300" width="11" height="15" rx="3" fill="#28374A"/><rect x="1159" y="300" width="11" height="15" rx="3" fill="#28374A"/><rect x="1176" y="300" width="11" height="15" rx="3" fill="#28374A"/><rect x="1193" y="300" width="11" height="15" rx="3" fill="#28374A"/><rect x="1210" y="300" width="11" height="15" rx="3" fill="#28374A"/><rect x="1227" y="300" width="11" height="15" rx="3" fill="#28374A"/><rect x="1244" y="300" width="11" height="15" rx="3" fill="#28374A"/><rect x="1261" y="300" width="11" height="15" rx="3" fill="#28374A"/><rect x="1278" y="300" width="11" height="15" rx="3" fill="#28374A"/><text x="1360" y="316" font-family="'Helvetica Neue', Helvetica, Arial, sans-serif" font-size="22" font-weight="700" fill="#7B94A9" text-anchor="end" letter-spacing="2" opacity="1">4/15</text><rect x="712" y="346" width="672" height="54" rx="12" fill="#16324B" stroke="#204058" stroke-width="2" opacity="1"/><text x="736" y="382" font-family="'Helvetica Neue', Helvetica, Arial, sans-serif" font-size="28" font-weight="700" fill="#EAF4FB" text-anchor="start" letter-spacing="4" opacity="1">BITE</text><text x="898" y="381" font-family="'Helvetica Neue', Helvetica, Arial, sans-serif" font-size="16" font-weight="700" fill="#7B94A9" text-anchor="start" letter-spacing="2" opacity="1">PROPELLER</text><rect x="1040" y="366" width="11" height="15" rx="3" fill="#FFC93C"/><rect x="1057" y="366" width="11" height="15" rx="3" fill="#FFC93C"/><rect x="1074" y="366" width="11" height="15" rx="3" fill="#FFC93C"/><rect x="1091" y="366" width="11" height="15" rx="3" fill="#FFC93C"/><rect x="1108" y="366" width="11" height="15" rx="3" fill="#FFC93C"/><rect x="1125" y="366" width="11" height="15" rx="3" fill="#FFC93C"/><rect x="1142" y="366" width="11" height="15" rx="3" fill="#FFC93C"/><rect x="1159" y="366" width="11" height="15" rx="3" fill="#FFC93C"/><rect x="1176" y="366" width="11" height="15" rx="3" fill="#FFC93C"/><rect x="1193" y="366" width="11" height="15" rx="3" fill="#28374A"/><rect x="1210" y="366" width="11" height="15" rx="3" fill="#28374A"/><rect x="1227" y="366" width="11" height="15" rx="3" fill="#28374A"/><rect x="1244" y="366" width="11" height="15" rx="3" fill="#28374A"/><rect x="1261" y="366" width="11" height="15" rx="3" fill="#28374A"/><rect x="1278" y="366" width="11" height="15" rx="3" fill="#28374A"/><text x="1360" y="382" font-family="'Helvetica Neue', Helvetica, Arial, sans-serif" font-size="22" font-weight="700" fill="#7B94A9" text-anchor="end" letter-spacing="2" opacity="1">9/15</text><rect x="712" y="412" width="672" height="54" rx="12" fill="#16324B" stroke="#204058" stroke-width="2" opacity="1"/><text x="736" y="448" font-family="'Helvetica Neue', Helvetica, Arial, sans-serif" font-size="28" font-weight="700" fill="#EAF4FB" text-anchor="start" letter-spacing="4" opacity="1">ANGLE</text><text x="898" y="447" font-family="'Helvetica Neue', Helvetica, Arial, sans-serif" font-size="16" font-weight="700" fill="#7B94A9" text-anchor="start" letter-spacing="2" opacity="1">TRIM</text><rect x="1040" y="432" width="11" height="15" rx="3" fill="#FFC93C"/><rect x="1057" y="432" width="11" height="15" rx="3" fill="#FFC93C"/><rect x="1074" y="432" width="11" height="15" rx="3" fill="#FFC93C"/><rect x="1091" y="432" width="11" height="15" rx="3" fill="#28374A"/><rect x="1108" y="432" width="11" height="15" rx="3" fill="#28374A"/><rect x="1125" y="432" width="11" height="15" rx="3" fill="#28374A"/><rect x="1142" y="432" width="11" height="15" rx="3" fill="#28374A"/><rect x="1159" y="432" width="11" height="15" rx="3" fill="#28374A"/><rect x="1176" y="432" width="11" height="15" rx="3" fill="#28374A"/><rect x="1193" y="432" width="11" height="15" rx="3" fill="#28374A"/><rect x="1210" y="432" width="11" height="15" rx="3" fill="#28374A"/><rect x="1227" y="432" width="11" height="15" rx="3" fill="#28374A"/><rect x="1244" y="432" width="11" height="15" rx="3" fill="#28374A"/><rect x="1261" y="432" width="11" height="15" rx="3" fill="#28374A"/><rect x="1278" y="432" width="11" height="15" rx="3" fill="#28374A"/><text x="1360" y="448" font-family="'Helvetica Neue', Helvetica, Arial, sans-serif" font-size="22" font-weight="700" fill="#7B94A9" text-anchor="end" letter-spacing="2" opacity="1">3/15</text><rect x="712" y="478" width="672" height="54" rx="12" fill="#16324B" stroke="#204058" stroke-width="2" opacity="1"/><text x="736" y="514" font-family="'Helvetica Neue', Helvetica, Arial, sans-serif" font-size="28" font-weight="700" fill="#EAF4FB" text-anchor="start" letter-spacing="4" opacity="1">RANGE</text><text x="898" y="513" font-family="'Helvetica Neue', Helvetica, Arial, sans-serif" font-size="16" font-weight="700" fill="#7B94A9" text-anchor="start" letter-spacing="2" opacity="1">FUEL</text><rect x="1040" y="498" width="11" height="15" rx="3" fill="#FFC93C"/><rect x="1057" y="498" width="11" height="15" rx="3" fill="#FFC93C"/><rect x="1074" y="498" width="11" height="15" rx="3" fill="#FFC93C"/><rect x="1091" y="498" width="11" height="15" rx="3" fill="#FFC93C"/><rect x="1108" y="498" width="11" height="15" rx="3" fill="#FFC93C"/><rect x="1125" y="498" width="11" height="15" rx="3" fill="#FFC93C"/><rect x="1142" y="498" width="11" height="15" rx="3" fill="#FFC93C"/><rect x="1159" y="498" width="11" height="15" rx="3" fill="#FFC93C"/><rect x="1176" y="498" width="11" height="15" rx="3" fill="#FFC93C"/><rect x="1193" y="498" width="11" height="15" rx="3" fill="#FFC93C"/><rect x="1210" y="498" width="11" height="15" rx="3" fill="#FFC93C"/><rect x="1227" y="498" width="11" height="15" rx="3" fill="#28374A"/><rect x="1244" y="498" width="11" height="15" rx="3" fill="#28374A"/><rect x="1261" y="498" width="11" height="15" rx="3" fill="#28374A"/><rect x="1278" y="498" width="11" height="15" rx="3" fill="#28374A"/><text x="1360" y="514" font-family="'Helvetica Neue', Helvetica, Arial, sans-serif" font-size="22" font-weight="700" fill="#7B94A9" text-anchor="end" letter-spacing="2" opacity="1">11/15</text><rect x="712" y="546" width="672" height="76" rx="14" fill="#2F6E92" stroke="#6FE0DC" stroke-width="2" opacity="1"/><text x="1048" y="594" font-family="'Helvetica Neue', Helvetica, Arial, sans-serif" font-size="40" font-weight="700" fill="#EAF4FB" text-anchor="middle" letter-spacing="8" opacity="1">START</text></svg>